<svg width="46" height="43" viewBox="0 0 46 43" fill="none" xmlns="http://www.w3.org/2000/svg">
<path d="M30.8298 39.0214C31.1703 40.5533 30.4894 41.7448 29.1277 42.0853C28.9575 42.0853 28.7873 42.0853 28.6171 42.0853C24.8724 42.0853 21.1277 42.0853 17.2128 42.0853C15.6809 42.0853 14.8298 41.2342 14.8298 39.7023C14.8298 39.0214 14.8298 38.5108 14.8298 37.8299C14.8298 37.4895 14.6596 37.3193 14.4894 37.3193C8.87238 34.5959 4.95749 30.3406 3.25536 24.3831C3.08515 23.5321 2.91494 22.681 2.74473 22.0002C2.57451 21.4895 2.57451 20.8087 2.57451 20.298C2.74472 20.298 3.08515 20.298 3.25536 20.298C14.3192 20.298 25.2128 20.298 36.2766 20.298C36.4468 20.298 36.6171 20.298 36.7873 20.298C37.1277 20.298 37.4681 19.9576 37.4681 19.6172C37.4681 19.2767 37.2979 18.9363 36.7873 18.9363C36.6171 18.9363 36.2766 18.9363 36.1064 18.9363C24.8724 18.9363 13.6383 18.9363 2.4043 18.9363C1.38302 18.9363 0.53196 18.4257 0.191534 17.4044C-0.148891 16.5533 0.191533 15.5321 0.872384 14.8512C1.38302 14.5108 1.72345 14.3406 2.4043 14.3406C7.00004 14.3406 11.5958 14.3406 16.0213 14.3406C25.2128 14.3406 34.4043 14.3406 43.4256 14.3406C44.6171 14.3406 45.4681 15.0214 45.6383 16.0427C45.8086 17.2342 45.2979 18.2555 44.2766 18.5959C43.9362 18.7661 43.766 18.7661 43.4256 18.7661C43.4256 19.447 43.2554 20.1278 43.2554 20.9789C42.7447 26.0853 40.3617 30.5108 36.6171 33.915C35.0851 35.2768 33.383 36.4682 31.3405 37.3193C31 37.4895 30.6596 37.4895 30.3192 37.4895C26.7447 37.4895 23.1703 37.4895 19.5958 37.4895C19.4256 37.4895 19.2554 37.4895 19.0851 37.4895C18.7447 37.4895 18.4043 37.8299 18.5745 38.1704C18.5745 38.5108 18.7447 38.8512 19.0851 38.8512C19.2554 38.8512 19.4256 38.8512 19.5958 38.8512C23.1703 38.8512 26.7447 38.8512 30.3192 38.8512C30.4894 39.0214 30.6596 39.0214 30.8298 39.0214Z" fill="#0F519B"/>
<path d="M39.3405 3.44695C39.1702 2.93631 39 2.59589 39 2.08525C39 1.4044 39.3405 0.893755 40.0213 0.55333C40.7022 0.212904 41.2128 0.383118 41.7234 0.893757C43.0851 2.08525 44.2766 3.44695 45.4681 4.63844C45.9788 5.31929 45.9788 6.17035 45.4681 6.8512C44.9575 7.53206 44.1064 7.70227 43.4256 7.19163C43.2554 7.19163 43.2554 7.02142 43.0851 7.02142C42.5745 7.70227 41.8937 8.38312 41.383 9.06397C40.5319 10.0852 39.6809 11.2767 38.6596 12.298C38.8298 12.6384 38.4894 12.8087 38.3192 12.8087C34.9149 12.8087 31.5107 12.8087 27.9362 12.8087H27.766C31.6809 9.57461 35.5958 6.51078 39.3405 3.44695Z" fill="#0F519B"/>
<path d="M12.4468 12.8085C12.2766 12.8085 12.1064 12.8085 11.9362 12.8085C9.89362 12.8085 7.85106 12.8085 5.80851 12.8085C5.46809 12.8085 5.29787 12.6383 5.12766 12.2979C4.2766 9.91491 4.61702 7.70214 5.29787 5.31917C5.46809 4.63831 5.80851 3.95746 5.97872 3.27661C9.38298 4.29789 12.9574 9.7447 12.4468 12.8085Z" fill="#0F519B"/>
<path d="M14.1489 12.8086C13.9787 11.7873 13.8085 10.766 13.6383 9.91495C13.6383 9.74474 13.6383 9.57453 13.8085 9.40431C15.3404 8.04261 17.2128 7.19155 19.4255 6.68091C19.4255 7.19155 19.5958 7.70219 19.5958 8.04261C19.5958 9.57453 19.4255 10.9362 19.0851 12.2979C19.0851 12.4681 18.9149 12.6384 18.7447 12.6384C17.2128 12.8086 15.6809 12.8086 14.1489 12.8086Z" fill="#0F519B"/>
</svg>
