<svg width="55" height="48" viewBox="0 0 55 48" fill="none" xmlns="http://www.w3.org/2000/svg">
<path d="M27.8975 0.106201C28.4081 0.446627 28.5784 0.957265 28.5784 1.4679C28.5784 1.97854 28.5784 2.48918 28.5784 2.99982C28.5784 3.68067 28.2379 4.0211 27.5571 4.0211C27.2167 4.0211 26.8762 4.0211 26.5358 4.0211C26.5358 4.19131 26.5358 4.36152 26.5358 4.53173C26.5358 8.1062 26.5358 11.8509 26.5358 15.4253C26.5358 15.7658 26.5358 15.936 26.706 16.2764C30.7911 23.7658 34.706 31.2551 38.7911 38.9147C39.3018 39.7658 39.8124 40.6168 39.9826 41.4679C41.0039 44.1913 39.6422 46.4041 36.9188 47.0849C36.2379 47.2551 35.5571 47.4254 34.706 47.4254C25.3443 47.4254 15.9826 47.4254 6.62091 47.4254C5.76985 47.4254 4.91879 47.2551 4.23793 47.0849C1.68474 46.4041 0.493255 44.1913 1.17411 41.6381C1.34432 41.1275 1.51453 40.6168 1.68474 40.1062C4.91879 33.6381 8.15283 27.17 11.3869 20.7019C12.0677 19.17 12.7486 17.8083 13.5996 16.2764C13.7698 16.1062 13.7698 15.7658 13.7698 15.5956C13.7698 11.8509 13.7698 8.1062 13.7698 4.36152C13.7698 4.19131 13.7698 4.19131 13.7698 4.0211C13.4294 4.0211 13.089 4.0211 12.7486 4.0211C12.0677 4.0211 11.7273 3.68067 11.7273 2.99982C11.7273 2.48918 11.7273 1.97854 11.7273 1.4679C11.7273 0.957265 11.8975 0.446627 12.4081 0.106201C17.5145 0.106201 22.7911 0.106201 27.8975 0.106201ZM28.2379 27.6807C28.0677 27.5105 28.0677 27.3402 28.0677 27.17C26.3656 23.936 24.4933 20.5317 22.7911 17.2977C22.6209 16.9573 22.6209 16.7871 22.6209 16.4466C22.6209 12.5317 22.6209 8.61684 22.6209 4.70195C22.6209 4.53173 22.6209 4.36152 22.6209 4.19131C21.089 4.19131 19.3869 4.19131 17.855 4.19131C17.855 4.36152 17.855 4.53173 17.855 4.70195C17.855 8.61684 17.855 12.3615 17.855 16.2764C17.855 16.6168 17.6847 16.9573 17.6847 17.2977C16.1528 20.5317 14.4507 23.936 12.7486 27.17C12.7486 27.3402 12.5784 27.5105 12.5784 27.6807C17.6847 27.6807 22.7911 27.6807 28.2379 27.6807Z" fill="#0F519B"/>
<path d="M42.1954 43.5107C48.4938 43.5107 53.5997 38.4048 53.5997 32.1064C53.5997 25.808 48.4938 20.7021 42.1954 20.7021C35.897 20.7021 30.7911 25.808 30.7911 32.1064C30.7911 38.4048 35.897 43.5107 42.1954 43.5107Z" fill="#10519B" stroke="#F4D400" stroke-width="2" stroke-miterlimit="10"/>
<path d="M47.1316 29.2129L40.6635 35.681L36.9188 31.9363" stroke="#F4D400" stroke-width="1.8" stroke-miterlimit="10" stroke-linecap="round" stroke-linejoin="round"/>
</svg>
