<svg width="45" height="35" viewBox="0 0 45 35" fill="none" xmlns="http://www.w3.org/2000/svg">
<path d="M27.2477 13.1152C27.0771 15.5033 27.0771 17.8913 26.2242 20.1088C25.5419 21.8146 24.5185 23.3497 22.6422 23.8615C22.1304 24.032 21.7893 24.2026 21.2775 24.032C18.5483 23.8615 16.3309 24.8849 14.1134 26.2495C11.3842 27.9553 9.16668 30.5139 7.29034 33.0726C6.60804 33.9254 5.75516 34.4372 4.73171 34.2666C3.3671 34.096 2.34365 33.0725 2.17307 31.7079C1.83192 28.1259 1.49077 24.3732 1.14962 20.7911C0.979042 17.8913 0.637891 15.1621 0.467315 12.2623C0.126164 7.99792 2.6848 2.88065 8.65495 1.51605C12.0665 0.663169 15.6486 0.833745 19.0601 1.68662C20.4247 2.02778 21.7893 2.36893 23.1539 2.71008C25.2008 3.2218 26.3948 4.58641 26.736 6.63332C26.9065 9.02138 26.9065 11.0683 27.2477 13.1152Z" fill="#0F519B"/>
<path d="M31.0004 23.0085C31.3415 21.6439 31.6827 20.2793 32.0238 18.9147C32.365 16.8678 32.7061 14.8209 32.5355 12.774C32.5355 12.2623 32.1944 11.9211 31.6827 11.9211C31.1709 11.9211 30.8298 12.2623 30.8298 12.9446C30.8298 15.3326 30.4886 17.5501 29.9769 19.9382C29.8063 20.7911 29.6358 21.4734 29.2946 22.3262C28.9535 23.6908 28.9535 25.0554 29.4652 26.42C29.6358 26.7612 29.8063 27.2729 29.9769 27.6141C30.3181 28.6375 29.9769 29.661 29.124 30.1727C28.7829 30.3433 28.2712 30.6844 27.93 30.855C26.9066 31.3667 25.8831 30.855 25.3714 30.0021C24.6891 28.6375 24.0068 27.1024 23.3245 25.7377V25.5672C25.8831 24.2026 27.2477 21.9851 27.7594 19.0853C28.2712 16.3561 28.4417 13.6269 28.1006 10.8977C28.1006 9.70364 27.93 8.68018 27.93 7.48615C27.7594 5.95097 27.2477 4.58636 26.2243 3.39233C26.3948 3.39233 26.736 3.39233 26.9066 3.56291C27.7594 3.90406 28.4417 4.41579 29.124 4.75694C29.2946 4.75694 29.4652 4.92751 29.4652 4.92751C31.6827 4.07464 33.9002 4.24521 36.1176 5.26867C37.4822 5.78039 38.5057 5.60982 39.5292 4.92751C40.5526 4.07464 41.7466 3.90406 42.9407 4.75694C44.1347 5.43924 44.4758 6.63327 44.1347 8.33903C43.623 10.3859 42.5995 12.0917 41.4055 13.6269C38.6763 17.3795 35.4353 20.6205 31.3415 23.0085C31.6827 22.6674 31.3415 22.838 31.0004 23.0085Z" fill="#0F519B"/>
</svg>
