<svg width="47" height="47" viewBox="0 0 47 47" fill="none" xmlns="http://www.w3.org/2000/svg">
<path d="M23.7658 0.0576172C36.3884 0.0576172 46.7935 10.2922 46.7935 23.0853C46.7935 35.8785 36.559 46.1131 23.7658 46.1131C11.1432 46.1131 0.738098 35.8785 0.738098 23.0853C0.738098 10.2922 10.9726 0.0576172 23.7658 0.0576172ZM37.4119 34.1728C42.6997 27.8615 43.2114 17.1152 35.7061 10.1216C28.5419 3.29855 18.1368 4.32201 12.5078 9.2687C20.866 17.6269 29.2242 25.8145 37.4119 34.1728ZM34.8532 36.7314C26.495 28.3732 18.3074 20.1855 9.94918 11.8273C4.83191 17.6269 4.14961 28.2026 11.1432 35.3668C17.9662 42.531 28.5419 42.0192 34.8532 36.7314Z" fill="#0F519B"/>
<path d="M19.5014 14.5566C20.1837 14.2155 21.0366 14.0449 21.7189 13.8743C22.2306 13.7038 22.4012 13.5332 22.0601 13.0215C21.8895 12.8509 21.7189 12.5097 21.5483 12.3392C21.0366 11.8274 21.2072 11.3157 21.7189 10.804C22.7424 9.78051 24.9599 9.78051 25.8127 10.804C26.3245 11.3157 26.3245 11.8274 25.8127 12.3392C25.6422 12.5097 25.4716 12.8509 25.301 13.0215C24.9599 13.5332 25.1304 13.7038 25.6422 13.8743C26.6656 14.2155 27.6891 14.7272 28.7125 15.0684C29.2242 15.2389 29.3948 15.2389 29.5654 14.7272C29.736 14.3861 29.736 14.0449 29.736 13.8743C29.9066 13.192 30.2477 12.8509 31.1006 12.8509C32.4652 13.0215 33.8298 14.3861 33.8298 15.7507C33.8298 16.433 33.4886 16.9447 32.8063 16.9447C32.4652 16.9447 32.124 16.9447 31.7829 17.1153C31.2712 17.2858 31.2712 17.4564 31.4417 17.9681C31.9535 18.9916 32.2946 20.0151 32.8063 21.0385C32.9769 21.5502 33.1475 21.5502 33.4886 21.3797C33.8298 21.2091 34.0004 21.0385 34.1709 20.8679C34.8532 20.3562 35.365 20.5268 35.8767 21.0385C36.559 21.8914 36.7296 23.7677 36.0473 24.7912C35.5356 25.4735 34.8532 25.6441 34.1709 24.9618C34.0004 24.7912 33.8298 24.7912 33.8298 24.6206C33.3181 24.2794 32.9769 24.45 32.8063 24.9618C32.6358 25.6441 32.2946 26.3264 32.124 27.0087C28.0302 23.0854 23.7658 18.821 19.5014 14.5566ZM27.6891 17.7976C27.0068 17.7976 26.495 18.3093 26.495 18.9916C26.495 19.6739 27.0068 20.1856 27.6891 20.1856C28.3714 20.1856 28.8831 19.6739 28.8831 18.9916C28.8831 18.3093 28.3714 17.7976 27.6891 17.7976Z" fill="#0F519B"/>
<path d="M15.237 18.821C19.5014 23.0854 23.7658 27.3498 28.0302 31.6142C27.3479 31.9554 26.495 32.1259 25.8127 32.4671C25.301 32.6377 25.1304 32.8083 25.4716 33.32C25.6421 33.4906 25.8127 33.8317 25.9833 34.0023C26.3244 34.514 26.3244 35.0257 25.9833 35.5375C24.9598 36.5609 22.5718 36.5609 21.7189 35.5375C21.3777 35.0257 21.3777 34.6846 21.7189 34.1729C21.8895 33.8317 22.06 33.6611 22.2306 33.32C22.4012 32.8083 22.2306 32.6377 21.8895 32.4671C20.866 32.1259 19.8426 31.6142 18.8191 31.1025C18.1368 30.7613 17.9662 30.7613 17.7957 31.2731C17.6251 31.6142 17.6251 31.9554 17.6251 32.2965C17.4545 32.9788 17.1133 33.32 16.2605 33.32C15.0664 33.1494 13.7018 31.9554 13.5313 30.5908C13.3607 29.7379 13.7018 29.2262 14.7253 29.0556C15.0664 29.0556 15.237 29.0556 15.5782 28.885C15.9193 28.7144 15.9193 28.5439 15.7487 28.2027C15.237 27.1793 14.8959 26.1558 14.3841 24.9618C14.2136 24.45 14.043 24.2795 13.5313 24.6206C13.1901 24.7912 13.0195 24.9618 12.849 25.1323C12.3372 25.4735 11.8255 25.4735 11.3138 24.9618C10.4609 23.9383 10.2903 21.8914 11.3138 20.868C11.8255 20.3562 12.3372 20.1857 13.0195 20.6974C13.1901 20.868 13.5313 21.0385 13.7018 21.2091C14.043 21.3797 14.3841 21.2091 14.5547 20.868C14.7253 20.3562 14.8959 19.5033 15.237 18.821ZM20.3543 27.0087C20.3543 26.4969 19.8426 25.9852 19.3308 25.9852C18.8191 25.9852 18.3074 26.4969 18.3074 27.0087C18.3074 27.5204 18.8191 28.0321 19.3308 28.0321C20.0131 28.0321 20.3543 27.5204 20.3543 27.0087Z" fill="#0F519B"/>
</svg>
