<svg width="404" height="405" viewBox="0 0 404 405" fill="none" xmlns="http://www.w3.org/2000/svg">
<path d="M202 0L221.097 21.2484L244.206 4.42511L258.457 29.17L284.568 17.507L293.35 44.6669L321.32 38.6741L324.25 67.0619L352.858 67.0011L349.807 95.3761L377.803 101.25L368.905 128.372L395.064 139.924L380.708 164.608L403.888 181.333L384.7 202.5L403.888 223.667L380.708 240.392L395.064 265.076L368.905 276.628L377.803 303.75L349.807 309.624L352.858 337.999L324.25 337.938L321.32 366.326L293.35 360.333L284.568 387.493L258.457 375.83L244.206 400.575L221.097 383.752L202 405L182.903 383.752L159.794 400.575L145.543 375.83L119.432 387.493L110.65 360.333L82.6796 366.326L79.7498 337.938L51.1416 337.999L54.1926 309.624L26.1968 303.75L35.0952 276.628L8.93553 265.076L23.2924 240.392L0.112061 223.667L19.3 202.5L0.112061 181.333L23.2924 164.608L8.93553 139.924L35.0952 128.372L26.1968 101.25L54.1926 95.3761L51.1416 67.0011L79.7498 67.0619L82.6796 38.6741L110.65 44.6669L119.432 17.507L145.543 29.17L159.794 4.42511L182.903 21.2484L202 0Z" fill="url(#paint0_linear_154_24)"/>
<defs>
<linearGradient id="paint0_linear_154_24" x1="202" y1="0" x2="202" y2="405" gradientUnits="userSpaceOnUse">
<stop stop-color="#FFD600"/>
<stop offset="1" stop-color="#FF9900"/>
</linearGradient>
</defs>
</svg>
