<svg width="1942" height="1170" viewBox="0 0 1942 1170" fill="none" xmlns="http://www.w3.org/2000/svg">
<path d="M843.124 448.799C956.879 444.678 1070.63 433.687 1184.19 422.697M854.107 520.04C955.506 498.059 1059.65 481.574 1163.8 478.826M1929.29 950.428C1815.54 961.418 1701.78 972.409 1588.22 976.53M1599.2 1047.77C1700.6 1025.79 1804.75 1009.3 1908.89 1006.56M677.786 51.2631C677.982 165.68 684.454 220.358 677.786 333.99M749.766 329.868C737.606 226.834 731.133 121.445 738.194 17.4294M12.71 763.985C125.288 783.611 237.867 803.236 348.484 829.535M356.918 757.901C253.361 752.21 148.628 740.435 47.4249 715.314M1416.21 207.405C1484.66 134.79 1613.52 206.031 1586.06 303.374C1568.22 370.493 1417.59 400.716 1391.5 326.728C1377.77 288.262 1380.72 240.179 1465.64 244.693M1120.06 621.308C1156.15 583.038 1225.38 646.036 1211.06 697.258C1201.65 732.584 1122.41 748.481 1108.88 709.426C1101.62 689.212 1103.19 663.895 1147.71 666.446M1434.65 1051.5C1442.1 1151.2 1302.66 1198.3 1249.31 1112.34C1211.65 1053.85 1291.08 922.167 1363.26 952.783C1400.92 968.484 1434.45 1003.02 1373.85 1062.69M598.354 705.109C655.035 645.055 761.337 703.931 738.783 784.396C724.073 839.936 599.53 864.861 577.956 803.629C566.581 771.836 565.6 748.481 635.618 752.406M1034.15 101.819C1056.12 89.4552 1102.6 72.9698 1125.94 90.829C1176.54 130.669 1105.35 204.657 1054.75 201.91C960.213 195.041 1030.04 90.829 1078.09 156.575M1764.35 756.135C1786.31 743.771 1832.79 727.286 1856.13 745.145C1906.74 784.985 1835.54 858.973 1784.94 856.225C1690.4 849.357 1760.23 745.145 1808.28 810.891M1098.48 1129.81C1077.69 1115.68 1042.2 1081.13 1047.88 1052.48C1060.83 989.287 1158.89 1020.3 1178.9 1066.81C1214.79 1154.53 1090.44 1138.24 1128.1 1066.02M1323.45 134.986C1352.28 129.491 1388.56 116.538 1370.12 91.0253C1351.69 65.512 1314.62 95.9316 1282.45 66.2971C1250.29 36.6625 1334.43 45.768 1370.12 51.2631M1010.81 653.494C1039.65 647.998 1075.93 635.046 1057.49 609.532C1039.06 584.019 1001.99 614.439 969.823 584.804C937.658 555.17 1021.8 546.338 1057.49 551.833M1768.27 178.359C1797.1 172.864 1833.38 159.911 1814.95 134.398C1796.51 108.885 1759.44 139.304 1727.28 109.67C1695.11 80.035 1779.25 71.2035 1814.95 76.6986M256.695 417.006C285.526 411.51 321.81 398.558 303.374 373.044C284.938 347.531 247.87 377.951 215.704 348.316C183.539 318.682 267.679 309.85 303.374 315.345M1624.9 793.227C1653.73 787.732 1690.01 774.779 1671.58 749.266C1653.14 723.753 1616.07 754.173 1583.91 724.538C1551.74 694.903 1635.88 686.072 1671.58 691.567M1554.49 466.07C1539.38 440.949 1514.87 411.314 1497.22 437.416C1479.56 463.518 1520.95 487.854 1504.28 528.282C1487.61 568.711 1450.34 492.564 1443.08 457.238M869.993 1015.19C841.751 1007.34 803.505 1003.02 808.801 1034.03C814.096 1065.04 860.775 1054.05 876.662 1094.87C892.548 1135.69 813.116 1106.45 783.5 1085.84M917.457 18.4107C889.214 10.5605 850.969 6.24288 856.264 37.2513C861.56 68.2596 908.239 57.2693 924.125 98.0905C940.012 138.912 860.579 109.67 830.964 89.0627M1383.46 631.513C1350.51 623.27 1271.08 593.047 1257.35 557.525C1236.76 506.891 1298.54 469.798 1272.45 412.296C1253.23 369.708 1132.61 313.579 1246.37 273.739M387.318 562.235C438.508 567.141 505.976 581.86 504.407 691.763C502.642 801.666 416.933 757.705 410.461 820.507C405.558 866.823 495.385 958.082 377.119 934.924M1751.6 445.07C1888.69 495.704 1725.51 593.047 1736.49 483.536M1039.06 284.729C1122.61 228.6 1165.17 339.485 1072.01 340.858M1568.61 106.726C1652.16 50.5966 1694.72 161.481 1601.56 162.855M345.15 617.579C467.339 612.476 440.665 754.369 343.385 696.67M731.526 401.109C822.922 443.304 750.158 537.31 700.537 458.416M530.1 862.898C621.497 905.093 548.733 999.099 499.112 920.205M1300.69 668.213C1392.09 710.408 1319.33 804.414 1269.71 725.519M1331.49 208.582C1279.51 233.311 1180.86 200.34 1234.21 134.594M1610.97 1126.47C1559 1151.2 1460.34 1118.23 1513.69 1052.48M1094.37 791.854C1134.77 821.881 1150.07 911.766 1077.3 897.439M532.258 462.341C535.984 412.099 603.453 351.064 630.519 420.146M652.878 945.718C691.907 903.327 795.66 896.85 770.752 977.904M1146.14 999.099C1191.45 979.866 1326.19 884.094 1232.44 840.133C1138.69 796.171 1314.62 809.909 1355.81 803.04M1590.18 581.271C1631.37 554.581 1747.87 437.024 1647.84 409.744C1547.82 382.465 1723.55 365.783 1762.97 352.045M765.064 633.475C755.454 585.197 703.479 496.685 641.306 579.701C579.329 662.718 608.356 516.9 610.121 475.294M1021.6 789.499C1011.99 741.22 960.017 652.709 897.844 735.725C835.867 818.741 763.495 642.307 866.659 631.317M307.297 468.425C407.323 463.714 500.485 381.091 406.735 337.13C312.985 293.168 488.913 306.906 530.1 300.037M1431.51 710.8C1445.24 712.174 1482.9 742.201 1489.18 727.678C1495.26 713.352 1439.75 672.923 1445.24 659.774C1450.73 646.821 1491.92 662.718 1487.02 644.662C1482.31 626.607 1430.14 618.953 1435.04 601.093C1439.75 583.038 1510.36 609.14 1528.2 611.887M964.136 318.878C953.545 310.046 939.227 264.123 926.086 272.562C912.946 281.001 936.089 345.765 924.321 353.419C912.553 361.073 887.449 324.766 881.369 342.429C875.289 359.895 913.926 395.614 900.001 407.782C885.88 419.949 842.143 358.718 829.002 346.55M247.085 134.79C259.049 141.659 281.016 184.639 292.587 174.041C304.159 163.444 270.228 103.586 280.623 94.1654C291.018 84.5488 321.811 116.146 324.949 97.698C328.087 79.4462 283.761 50.7929 295.529 36.4662C307.297 22.1396 360.84 74.9323 375.942 84.7451M609.533 1004.59C608.16 1018.33 578.152 1056.01 592.666 1062.29C606.983 1068.38 647.386 1012.84 660.527 1018.33C673.471 1023.83 657.585 1065.04 675.629 1060.14C693.673 1055.42 701.322 1003.22 719.169 1008.13C737.213 1012.84 711.128 1083.49 708.382 1101.35M914.515 951.998C876.269 958.671 851.557 938.849 864.306 895.084C888.822 811.283 1011.99 823.058 1002.18 918.242C992.967 1007.34 918.83 966.914 955.114 1038.15M535.2 165.602C553.44 199.947 542.064 229.582 496.562 230.955C409.284 233.507 382.415 112.81 475.772 92.5953C563.246 73.7548 547.752 156.771 604.237 100.249M954.721 214.274C904.12 211.526 850.576 208.779 802.721 192.293M1466.23 113.987C1493.69 71.3997 1507.34 97.8613 1545.39 64.3016M235.513 1038.74C263.168 996.156 291.999 951.017 330.048 917.457M258.264 700.987C272.778 652.316 288.076 600.897 315.338 558.113M590.508 335.363C602.276 295.916 589.724 250.581 611.887 215.844M1368.16 533.385C1366.99 492.172 1331.68 408.567 1341.88 368.727M344.562 508.657C420.464 500.414 479.303 509.638 517.352 525.535M357.31 231.937C307.885 253.917 227.08 245.675 216.097 185.228M1854.56 581.664C1833.58 631.513 1769.05 680.773 1719.82 644.27M1669.81 880.561C1620.58 902.542 1539.58 894.299 1528.6 833.852M501.858 1029.32C445.765 1030.7 386.729 1036.19 332.009 1023.83M444.392 1072.3H386.926M1856.33 237.432C1800.24 238.806 1741.2 244.301 1686.48 231.937M1798.67 280.216H1741.2M1502.32 949.643C1473.48 901.364 1439.55 852.889 1423.28 799.115M1436.61 920.597C1427.2 903.916 1417.59 887.234 1408.17 870.552" stroke="#E5F2FF" stroke-opacity="0.3" stroke-width="25" stroke-miterlimit="10" stroke-linecap="round"/>
</svg>
