<svg width="256" height="256" viewBox="0 0 256 256" fill="none" xmlns="http://www.w3.org/2000/svg">
<path d="M128 0L140.042 13.4311L154.613 2.7971L163.599 18.4383L180.062 11.0662L185.6 28.2339L203.237 24.4458L205.084 42.3897L223.123 42.3513L221.199 60.2871L238.851 64L233.24 81.1439L249.735 88.4458L240.683 104.049L255.299 114.62L243.2 128L255.299 141.38L240.683 151.951L249.735 167.554L233.24 174.856L238.851 192L221.199 195.713L223.123 213.649L205.084 213.61L203.237 231.554L185.6 227.766L180.062 244.934L163.599 237.562L154.613 253.203L140.042 242.569L128 256L115.958 242.569L101.387 253.203L92.4012 237.562L75.9377 244.934L70.4 227.766L52.7635 231.554L50.9162 213.61L32.8775 213.649L34.8012 195.713L17.1488 192L22.7596 174.856L6.26476 167.554L15.3174 151.951L0.701195 141.38L12.8 128L0.701195 114.62L15.3174 104.049L6.26476 88.4458L22.7596 81.1439L17.1488 64L34.8012 60.2871L32.8775 42.3513L50.9162 42.3897L52.7635 24.4458L70.4 28.2339L75.9377 11.0662L92.4012 18.4383L101.387 2.7971L115.958 13.4311L128 0Z" fill="url(#paint0_linear_154_23)"/>
<defs>
<linearGradient id="paint0_linear_154_23" x1="128" y1="0" x2="128" y2="256" gradientUnits="userSpaceOnUse">
<stop stop-color="#FFD600"/>
<stop offset="1" stop-color="#FF9900"/>
</linearGradient>
</defs>
</svg>
