<svg width="1716" height="1054" viewBox="0 0 1716 1054" fill="none" xmlns="http://www.w3.org/2000/svg">
<path d="M745.237 416.132C845.547 412.497 945.858 402.803 1046 393.11M754.922 478.967C844.337 459.58 936.172 445.039 1028.01 442.616M1703.03 858.573C1602.72 868.267 1502.41 877.96 1402.27 881.595M1411.96 944.43C1501.37 925.043 1593.21 910.503 1685.04 908.079M605.148 12.9844C605.321 113.901 605.321 214.645 599.441 314.869M662.913 311.234C652.19 220.357 646.483 127.403 652.709 35.6603M12.9707 694.129C112.243 711.439 211.516 728.749 309.059 751.944M316.496 688.763C225.179 683.743 132.824 673.357 43.5827 651.2M1250.59 203.22C1310.95 139.174 1424.58 202.008 1400.37 287.866C1384.63 347.065 1251.8 373.723 1228.8 308.464C1216.7 274.537 1219.29 232.128 1294.18 236.109M989.441 568.286C1021.26 534.532 1082.31 590.096 1069.69 635.275C1061.39 666.433 991.516 680.454 979.583 646.007C973.184 628.178 974.567 605.848 1013.83 608.099M1266.85 947.719C1273.42 1035.65 1150.46 1077.2 1103.41 1001.38C1070.21 949.796 1140.25 833.647 1203.9 860.65C1237.1 874.498 1266.68 904.964 1213.24 957.586M529.396 642.199C579.379 589.231 673.117 641.161 653.228 712.131C640.257 761.118 530.434 783.102 511.41 729.095C501.379 701.053 500.514 680.454 562.257 683.916M913.689 110.093C933.059 99.1877 974.048 84.6474 994.629 100.399C1039.25 135.538 976.47 200.797 931.849 198.373C848.487 192.315 910.057 100.399 952.43 158.388M1557.58 687.205C1576.95 676.3 1617.94 661.759 1638.52 677.511C1683.14 712.651 1620.36 777.909 1575.74 775.485C1492.38 769.427 1553.95 677.511 1596.32 735.5M970.416 1016.79C952.084 1004.32 920.78 973.857 925.795 948.584C937.21 892.847 1023.68 920.196 1041.33 961.221C1072.98 1038.6 963.325 1024.23 996.532 960.528M1168.79 139.347C1194.21 134.5 1226.21 123.075 1209.95 100.572C1193.69 78.0696 1161.01 104.9 1132.64 78.762C1104.28 52.624 1178.47 44.8346 1209.95 49.6814M893.108 596.674C918.532 591.827 950.527 580.403 934.27 557.9C918.013 535.397 885.325 562.228 856.962 536.09C828.598 509.952 902.793 502.162 934.27 507.009M1561.04 177.602C1586.46 172.755 1618.46 161.33 1602.2 138.827C1585.94 116.324 1553.25 143.155 1524.89 117.017C1496.53 90.8789 1570.72 83.0895 1602.2 87.9362M228.119 388.09C253.543 383.243 285.538 371.819 269.281 349.316C253.024 326.813 220.337 353.643 191.973 327.505C163.609 301.367 237.804 293.578 269.281 298.425M1434.61 719.921C1460.03 715.074 1492.03 703.649 1475.77 681.147C1459.52 658.644 1426.83 685.474 1398.47 659.336C1370.1 633.198 1444.3 625.409 1475.77 630.255M1372.52 431.365C1359.21 409.208 1337.59 383.07 1322.02 406.092C1306.46 429.114 1342.95 450.579 1328.25 486.237C1313.55 521.895 1280.69 454.733 1274.29 423.575M768.931 915.696C744.026 908.772 710.301 904.964 714.971 932.313C719.64 959.663 760.802 949.969 774.811 985.974C788.82 1021.98 718.776 996.187 692.66 978.011M810.784 36.5258C785.88 29.6019 752.155 25.7937 756.824 53.1433C761.494 80.493 802.656 70.7994 816.665 106.804C830.674 142.809 760.629 117.017 734.514 98.8415M1221.71 577.287C1192.66 570.017 1122.61 543.36 1110.5 512.029C1092.35 467.369 1146.82 434.654 1123.82 383.936C1106.87 346.373 1000.51 296.867 1100.82 261.728M343.303 516.183C388.443 520.511 447.937 533.493 446.554 630.429C444.997 727.364 369.419 688.59 363.711 743.981C359.388 784.833 438.598 865.324 334.31 844.898M1546.34 412.843C1667.23 457.503 1523.33 543.36 1533.02 446.77M918.013 271.421C991.689 221.915 1029.22 319.716 947.068 320.927M1384.98 114.42C1458.65 64.9141 1496.18 162.715 1414.03 163.927M306.119 564.997C413.866 560.497 390.345 685.647 304.563 634.756M646.829 374.069C727.423 411.285 663.259 494.2 619.503 424.614M469.21 781.371C549.804 818.587 485.64 901.502 441.884 831.916M1148.73 609.657C1229.32 646.873 1165.16 729.787 1121.4 660.202M1175.88 204.259C1130.05 226.069 1043.05 196.989 1090.1 139M1422.33 1013.84C1376.5 1035.65 1289.51 1006.57 1336.55 948.584M966.784 718.709C1002.41 745.193 1015.9 824.473 951.738 811.836M471.113 428.076C474.399 383.762 533.893 329.929 557.76 390.86M577.476 854.419C611.893 817.029 703.383 811.317 681.419 882.807M1012.44 901.502C1052.39 884.538 1171.21 800.066 1088.54 761.291C1005.87 722.517 1161.01 734.634 1197.33 728.576M1404 532.974C1440.32 509.432 1543.05 405.746 1454.85 381.685C1366.64 357.624 1521.6 342.911 1556.37 330.794M676.403 579.018C667.929 536.436 622.097 458.368 567.272 531.589C512.62 604.81 538.217 476.197 539.773 439.5M902.62 716.632C894.146 674.049 848.314 595.982 793.489 669.203C738.838 742.424 675.019 586.808 765.991 577.114M272.74 433.442C360.944 429.287 443.095 356.413 360.425 317.639C277.756 278.864 432.891 290.981 469.21 284.923M1264.08 647.219C1276.19 648.431 1309.4 674.915 1314.93 662.106C1320.29 649.469 1271.35 613.811 1276.19 602.213C1281.03 590.789 1317.35 604.81 1313.03 588.885C1308.88 572.96 1262.87 566.209 1267.2 550.457C1271.35 534.532 1333.61 557.554 1349.35 559.977M851.946 301.54C842.607 293.751 829.982 253.246 818.394 260.689C806.807 268.132 827.215 325.255 816.838 332.006C806.461 338.757 784.323 306.733 778.962 322.312C773.6 337.718 807.671 369.222 795.392 379.954C782.94 390.686 744.372 336.68 732.784 325.947M219.645 139.174C230.195 145.232 249.565 183.141 259.769 173.793C269.973 164.446 240.053 111.651 249.219 103.342C258.385 94.8602 285.538 122.729 288.305 106.458C291.073 90.3596 251.986 65.0872 262.363 52.4509C272.74 39.8147 319.955 86.3784 333.272 95.0333M539.254 906.348C538.044 918.465 511.583 951.7 524.381 957.239C537.006 962.606 572.634 913.618 584.221 918.465C595.636 923.312 581.627 959.663 597.538 955.335C613.45 951.181 620.195 905.137 635.933 909.464C651.844 913.619 628.842 975.934 626.421 991.686M808.19 859.958C774.465 865.843 752.674 848.36 763.915 809.759C785.534 735.846 894.146 746.232 885.498 830.185C877.37 908.772 811.995 873.113 843.991 935.948M473.707 166.35C489.791 196.642 479.76 222.78 439.636 223.992C362.674 226.242 338.98 119.786 421.303 101.957C498.439 85.3398 484.776 158.561 534.585 108.708M843.645 209.279C799.024 206.855 751.809 204.432 709.609 189.892M1294.7 120.825C1318.91 83.2626 1344.5 43.4498 1378.06 13.8499M209.441 936.468C233.827 898.905 259.25 859.092 292.802 829.492M229.503 638.564C242.301 595.636 255.791 550.284 279.831 512.548M522.478 316.081C532.855 281.288 521.787 241.302 541.33 210.663M1208.22 490.738C1207.18 454.387 1176.05 380.647 1185.05 345.508M305.6 468.927C372.532 461.657 424.416 469.793 457.968 483.814M316.842 224.858C273.259 244.245 202.004 236.974 192.319 183.66M1637.13 533.32C1618.63 577.287 1561.73 620.735 1518.32 588.539M1474.22 796.95C1430.81 816.337 1359.38 809.067 1349.69 755.752M444.305 928.159C394.842 929.371 342.784 934.217 294.532 923.312M393.631 966.067H342.957M1638.69 229.704C1589.23 230.916 1537.17 235.763 1488.92 224.858M1587.84 267.44H1537.17M1326.52 857.881C1301.09 815.298 1271.17 772.543 1256.82 725.114M1268.58 832.262C1260.28 817.549 1251.8 802.835 1243.5 788.122" stroke="#0060BE" stroke-opacity="0.2" stroke-width="25" stroke-miterlimit="10" stroke-linecap="round"/>
</svg>
