<svg width="261" height="261" viewBox="0 0 261 261" fill="none" xmlns="http://www.w3.org/2000/svg">
<path d="M130.281 0L142.585 13.6737L157.472 2.84764L166.654 18.7714L183.475 11.2661L189.133 28.744L207.153 24.8875L209.04 43.1555L227.471 43.1164L225.505 61.3763L243.541 65.1562L237.808 82.6099L254.662 90.0437L245.412 105.928L260.346 116.691L247.984 130.312L260.346 143.934L245.412 154.697L254.662 170.581L237.808 178.015L243.541 195.469L225.505 199.249L227.471 217.509L209.04 217.469L207.153 235.738L189.133 231.881L183.475 249.359L166.654 241.854L157.472 257.777L142.585 246.951L130.281 260.625L117.978 246.951L103.09 257.777L93.909 241.854L77.0877 249.359L71.4297 231.881L53.41 235.738L51.5225 217.469L33.0918 217.509L35.0574 199.249L17.0214 195.469L22.7541 178.015L5.90089 170.581L15.1502 154.697L0.216431 143.934L12.5781 130.312L0.216431 116.691L15.1502 105.928L5.90089 90.0437L22.7541 82.6099L17.0214 65.1562L35.0574 61.3763L33.0918 43.1164L51.5225 43.1555L53.41 24.8875L71.4297 28.744L77.0877 11.2661L93.909 18.7714L103.09 2.84764L117.978 13.6737L130.281 0Z" fill="url(#paint0_linear_193_124)"/>
<defs>
<linearGradient id="paint0_linear_193_124" x1="130.281" y1="0" x2="130.281" y2="260.625" gradientUnits="userSpaceOnUse">
<stop stop-color="#FFD600"/>
<stop offset="1" stop-color="#FF9900"/>
</linearGradient>
</defs>
</svg>
