<svg width="72" height="58" viewBox="0 0 72 58" fill="none" xmlns="http://www.w3.org/2000/svg">
<path d="M30.4554 41.6875C31.9572 43.1979 33.8494 43.9084 36.132 43.819C38.4147 43.7296 40.0666 42.8982 41.0878 41.325L61.2713 10.875L30.9961 31.175C29.4343 32.2625 28.5789 33.9082 28.4299 36.1122C28.2809 38.3162 28.9561 40.1747 30.4554 41.6875ZM11.173 58C9.85146 58 8.63565 57.7124 7.52556 57.1372C6.41546 56.5621 5.52883 55.7017 4.86566 54.5562C3.30384 51.7167 2.10245 48.7719 1.26147 45.7221C0.420489 42.6723 0 39.5149 0 36.25C0 31.2354 0.946702 26.5229 2.84011 22.1125C4.73351 17.7021 7.3009 13.8656 10.5423 10.6031C13.7836 7.34062 17.5981 4.75842 21.9856 2.8565C26.3731 0.954583 31.0585 0.00241667 36.0419 0C40.9677 0 45.5931 0.936458 49.9181 2.80937C54.2431 4.68229 58.0275 7.2355 61.2713 10.469C64.5151 13.7025 67.0981 17.4785 69.0203 21.7971C70.9426 26.1157 71.9337 30.7521 71.9938 35.7062C72.0538 39.0292 71.679 42.2772 70.8693 45.4502C70.0595 48.6233 68.8125 51.6586 67.1281 54.5562C66.4673 55.7041 65.5819 56.5657 64.4718 57.1409C63.3617 57.716 62.1435 58.0024 60.8172 58H11.173Z" fill="url(#paint0_linear_272_3265)"/>
<defs>
<linearGradient id="paint0_linear_272_3265" x1="36" y1="0" x2="36" y2="58" gradientUnits="userSpaceOnUse">
<stop stop-color="#FFC700"/>
<stop offset="1" stop-color="#FF8A00"/>
</linearGradient>
</defs>
</svg>
