<svg width="56" height="59" viewBox="0 0 56 59" fill="none" xmlns="http://www.w3.org/2000/svg">
<path d="M56 0V6.21053C56 36.1049 39.2849 49.6842 18.6687 49.6842H12.7517C13.4113 40.3312 16.3293 34.6703 23.9449 27.9443C27.6905 24.6372 27.3731 22.7274 25.5284 23.8236C12.8233 31.3694 6.51119 41.5671 6.23121 57.8511L6.22188 59H0C0 54.7675 0.360869 50.9263 1.07638 47.4112C0.362943 43.3929 0.00518467 37.9401 0.00311071 31.0526C0.00311071 13.9023 13.9308 0 31.1125 0C37.3344 0 43.5562 3.10526 56 0Z" fill="url(#paint0_linear_272_3269)"/>
<defs>
<linearGradient id="paint0_linear_272_3269" x1="28" y1="0" x2="28" y2="59" gradientUnits="userSpaceOnUse">
<stop stop-color="#FFC700"/>
<stop offset="1" stop-color="#FF8A00"/>
</linearGradient>
</defs>
</svg>
