<svg width="70" height="71" viewBox="0 0 70 71" fill="none" xmlns="http://www.w3.org/2000/svg">
<g clip-path="url(#clip0_272_3272)">
<path d="M0.0803643 26.0801C0.080042 26.2554 0.0796949 26.4441 0.0793726 26.6193C0.160044 26.7408 0.267677 26.8623 0.321361 26.9972C2.04026 30.7208 2.58587 34.6174 1.90434 38.6466C1.57724 40.5601 1.04799 42.4329 0.0471687 44.1295C0.0468464 44.3047 0.0464993 44.4934 0.046177 44.6687C0.275007 44.8713 0.503787 45.1008 0.746116 45.29C5.71446 48.9117 8.49636 53.783 9.03788 59.9038C9.09064 60.5375 9.37328 60.8076 9.99337 60.8627C16.1133 61.4401 20.9753 64.2258 24.5794 69.2065C24.7677 69.463 24.9831 69.679 25.1983 69.9086C25.3736 69.9089 25.5624 69.9093 25.7376 69.9096C25.8591 69.8289 25.9807 69.7213 26.1156 69.6676C29.8399 67.9356 33.7373 67.417 37.7673 68.0984C39.6812 68.4255 41.5542 68.9546 43.2512 69.9553C43.4265 69.9556 43.6152 69.9559 43.7905 69.9563C44.0607 69.6332 44.3444 69.3102 44.6012 68.9737C48.2098 64.195 52.9875 61.5079 58.9612 60.9527C59.7569 60.8733 59.9189 60.7118 60.0013 59.9302C60.6057 53.8654 63.3649 49.0312 68.2926 45.4547C69.1836 44.8093 69.2107 44.7554 68.7676 43.7571C66.3374 38.2529 66.334 32.7531 68.7845 27.2579C69.2448 26.2208 69.2313 26.1938 68.3023 25.5047C63.3879 21.8965 60.6464 17.0523 60.0913 10.9853C60.0251 10.3247 59.7559 10.0546 59.0954 9.98601C53.0025 9.40865 48.1539 6.6229 44.5632 1.66923C43.9311 0.805362 43.8907 0.791808 42.9192 1.22137C37.3734 3.67797 31.8322 3.66778 26.2955 1.17732C25.3795 0.757763 25.2985 0.784573 24.7038 1.61922C21.0813 6.58659 16.2091 9.35446 10.0871 9.90935C9.45331 9.96211 9.18314 10.2447 9.12805 10.8781C8.55053 16.9969 5.76422 21.8579 0.782584 25.4614C0.526073 25.6496 0.309963 25.8649 0.0803643 26.0801ZM9.25819 35.4115C9.25681 21.5004 20.6299 10.1444 34.5842 10.1296C48.4845 10.1148 59.8428 21.4721 59.8845 35.4372C59.9264 49.3349 48.4723 60.7717 34.5315 60.746C20.6043 60.7204 9.25952 49.3496 9.25819 35.4115Z" fill="url(#paint0_linear_272_3272)"/>
<path d="M13.4245 35.4059C13.4031 47.0389 22.9176 56.5596 34.5394 56.581C46.1747 56.6024 55.6973 47.0897 55.7186 35.4702C55.74 23.8372 46.2255 14.3165 34.6037 14.2951C22.9684 14.2872 13.4459 23.7864 13.4245 35.4059ZM34.5877 45.0154C30.7991 45.0219 27.5141 42.4817 26.5635 38.8269C26.2288 37.5592 26.986 36.3879 28.2537 36.188C29.3191 36.0147 30.2482 36.65 30.5966 37.8368C31.0388 39.307 31.9673 40.2792 33.4496 40.6863C35.3227 41.202 37.832 40.3709 38.5784 37.7167C38.9177 36.5042 40.0648 35.9132 41.2101 36.2658C42.2881 36.6047 42.8657 37.7381 42.54 38.9102C41.5626 42.521 38.3088 45.0088 34.5877 45.0154ZM44.9389 32.1074C43.2132 32.0907 41.9886 30.8483 42.0052 29.1229C42.0217 27.5054 43.3589 26.1734 44.9768 26.1763C46.716 26.1795 47.9675 27.4624 47.9373 29.2147C47.9074 30.8457 46.5837 32.1239 44.9389 32.1074ZM24.1626 32.0692C22.4234 32.0525 21.2257 30.8371 21.2424 29.0848C21.2589 27.4672 22.5961 26.1352 24.2005 26.1381C25.9127 26.1413 27.1643 27.3972 27.1611 29.1091C27.1716 30.7672 25.8344 32.0857 24.1626 32.0692Z" fill="url(#paint1_linear_272_3272)"/>
</g>
<defs>
<linearGradient id="paint0_linear_272_3272" x1="34.6277" y1="0.927758" x2="34.5008" y2="69.9392" gradientUnits="userSpaceOnUse">
<stop stop-color="#FFC700"/>
<stop offset="1" stop-color="#FF8A00"/>
</linearGradient>
<linearGradient id="paint1_linear_272_3272" x1="34.6104" y1="14.2951" x2="34.5327" y2="56.5809" gradientUnits="userSpaceOnUse">
<stop stop-color="#FFC700"/>
<stop offset="1" stop-color="#FF8A00"/>
</linearGradient>
<clipPath id="clip0_272_3272">
<rect width="69.0162" height="69.0162" fill="white" transform="matrix(-0.999998 -0.00183916 -0.00183916 0.999998 69.1431 1)"/>
</clipPath>
</defs>
</svg>
